<mxfile host="Electron" agent="Mozilla/5.0 (Macintosh; Intel Mac OS X 10_15_7) AppleWebKit/537.36 (KHTML, like Gecko) draw.io/25.0.2 Chrome/128.0.6613.186 Electron/32.2.5 Safari/537.36" version="25.0.2">
  <diagram name="Page-1" id="UjOHUNxPGSwp-1deA43y">
    <mxGraphModel dx="1242" dy="822" grid="1" gridSize="10" guides="1" tooltips="1" connect="1" arrows="1" fold="1" page="1" pageScale="1" pageWidth="827" pageHeight="1169" math="0" shadow="0">
      <root>
        <mxCell id="0" />
        <mxCell id="1" parent="0" />
        <mxCell id="1ViopwB_VYeIhNxWPcku-1" value="user" style="shape=umlActor;verticalLabelPosition=bottom;verticalAlign=top;html=1;outlineConnect=0;" vertex="1" parent="1">
          <mxGeometry x="50" y="338" width="30" height="50" as="geometry" />
        </mxCell>
        <mxCell id="1ViopwB_VYeIhNxWPcku-3" value="LLM" style="rounded=0;whiteSpace=wrap;html=1;fontStyle=1;fontSize=18;" vertex="1" parent="1">
          <mxGeometry x="630" y="338" width="120" height="55" as="geometry" />
        </mxCell>
        <mxCell id="1ViopwB_VYeIhNxWPcku-24" style="edgeStyle=orthogonalEdgeStyle;rounded=0;orthogonalLoop=1;jettySize=auto;html=1;entryX=0;entryY=0.5;entryDx=0;entryDy=0;" edge="1" parent="1" source="1ViopwB_VYeIhNxWPcku-5" target="1ViopwB_VYeIhNxWPcku-17">
          <mxGeometry relative="1" as="geometry" />
        </mxCell>
        <mxCell id="1ViopwB_VYeIhNxWPcku-5" value="Query" style="rounded=0;whiteSpace=wrap;html=1;fontStyle=1;fontSize=16;" vertex="1" parent="1">
          <mxGeometry x="100" y="343" width="80" height="45" as="geometry" />
        </mxCell>
        <mxCell id="1ViopwB_VYeIhNxWPcku-22" style="edgeStyle=orthogonalEdgeStyle;rounded=0;orthogonalLoop=1;jettySize=auto;html=1;entryX=0.5;entryY=1;entryDx=0;entryDy=0;" edge="1" parent="1" source="1ViopwB_VYeIhNxWPcku-7" target="1ViopwB_VYeIhNxWPcku-18">
          <mxGeometry relative="1" as="geometry" />
        </mxCell>
        <mxCell id="1ViopwB_VYeIhNxWPcku-7" value="" style="shape=cylinder3;whiteSpace=wrap;html=1;boundedLbl=1;backgroundOutline=1;size=8;" vertex="1" parent="1">
          <mxGeometry x="464" y="465" width="60" height="70" as="geometry" />
        </mxCell>
        <mxCell id="1ViopwB_VYeIhNxWPcku-29" style="edgeStyle=orthogonalEdgeStyle;rounded=0;orthogonalLoop=1;jettySize=auto;html=1;" edge="1" parent="1" source="1ViopwB_VYeIhNxWPcku-8" target="1ViopwB_VYeIhNxWPcku-27">
          <mxGeometry relative="1" as="geometry" />
        </mxCell>
        <mxCell id="1ViopwB_VYeIhNxWPcku-30" style="edgeStyle=orthogonalEdgeStyle;rounded=0;orthogonalLoop=1;jettySize=auto;html=1;entryX=0.5;entryY=0;entryDx=0;entryDy=0;" edge="1" parent="1" source="1ViopwB_VYeIhNxWPcku-8" target="1ViopwB_VYeIhNxWPcku-26">
          <mxGeometry relative="1" as="geometry" />
        </mxCell>
        <mxCell id="1ViopwB_VYeIhNxWPcku-31" style="edgeStyle=orthogonalEdgeStyle;rounded=0;orthogonalLoop=1;jettySize=auto;html=1;entryX=0.5;entryY=0;entryDx=0;entryDy=0;" edge="1" parent="1" source="1ViopwB_VYeIhNxWPcku-8" target="1ViopwB_VYeIhNxWPcku-28">
          <mxGeometry relative="1" as="geometry" />
        </mxCell>
        <mxCell id="1ViopwB_VYeIhNxWPcku-8" value="Knowledge Base" style="text;html=1;align=center;verticalAlign=middle;whiteSpace=wrap;rounded=0;fontStyle=1;fontSize=17;" vertex="1" parent="1">
          <mxGeometry x="414" y="537.5" width="160" height="35" as="geometry" />
        </mxCell>
        <mxCell id="1ViopwB_VYeIhNxWPcku-9" value="" style="rounded=0;whiteSpace=wrap;html=1;" vertex="1" parent="1">
          <mxGeometry x="180" y="450" width="60" height="60" as="geometry" />
        </mxCell>
        <mxCell id="1ViopwB_VYeIhNxWPcku-10" value="" style="rounded=0;whiteSpace=wrap;html=1;" vertex="1" parent="1">
          <mxGeometry x="190" y="460" width="60" height="60" as="geometry" />
        </mxCell>
        <mxCell id="1ViopwB_VYeIhNxWPcku-12" style="edgeStyle=orthogonalEdgeStyle;rounded=0;orthogonalLoop=1;jettySize=auto;html=1;" edge="1" parent="1" source="1ViopwB_VYeIhNxWPcku-11" target="1ViopwB_VYeIhNxWPcku-7">
          <mxGeometry relative="1" as="geometry" />
        </mxCell>
        <mxCell id="1ViopwB_VYeIhNxWPcku-11" value="" style="rounded=0;whiteSpace=wrap;html=1;" vertex="1" parent="1">
          <mxGeometry x="200" y="470" width="60" height="60" as="geometry" />
        </mxCell>
        <mxCell id="1ViopwB_VYeIhNxWPcku-13" value="files" style="text;html=1;align=center;verticalAlign=middle;whiteSpace=wrap;rounded=0;fontStyle=1;fontSize=17;" vertex="1" parent="1">
          <mxGeometry x="185" y="530" width="70" height="50" as="geometry" />
        </mxCell>
        <mxCell id="1ViopwB_VYeIhNxWPcku-19" style="edgeStyle=orthogonalEdgeStyle;rounded=0;orthogonalLoop=1;jettySize=auto;html=1;entryX=0;entryY=0.5;entryDx=0;entryDy=0;" edge="1" parent="1" source="1ViopwB_VYeIhNxWPcku-17" target="1ViopwB_VYeIhNxWPcku-18">
          <mxGeometry relative="1" as="geometry" />
        </mxCell>
        <mxCell id="1ViopwB_VYeIhNxWPcku-17" value="Query Translation&lt;div&gt;Prompt Generation&lt;/div&gt;" style="rounded=0;whiteSpace=wrap;html=1;fontStyle=1;fontSize=15;" vertex="1" parent="1">
          <mxGeometry x="220" y="335" width="160" height="60" as="geometry" />
        </mxCell>
        <mxCell id="1ViopwB_VYeIhNxWPcku-23" style="edgeStyle=orthogonalEdgeStyle;rounded=0;orthogonalLoop=1;jettySize=auto;html=1;" edge="1" parent="1" source="1ViopwB_VYeIhNxWPcku-18" target="1ViopwB_VYeIhNxWPcku-3">
          <mxGeometry relative="1" as="geometry" />
        </mxCell>
        <mxCell id="1ViopwB_VYeIhNxWPcku-18" value="Context Building" style="rounded=0;whiteSpace=wrap;html=1;fontStyle=1;fontSize=15;" vertex="1" parent="1">
          <mxGeometry x="414" y="335" width="160" height="60" as="geometry" />
        </mxCell>
        <mxCell id="1ViopwB_VYeIhNxWPcku-20" style="edgeStyle=orthogonalEdgeStyle;rounded=0;orthogonalLoop=1;jettySize=auto;html=1;entryX=0.283;entryY=0.064;entryDx=0;entryDy=0;entryPerimeter=0;" edge="1" parent="1" target="1ViopwB_VYeIhNxWPcku-7">
          <mxGeometry relative="1" as="geometry">
            <mxPoint x="480" y="400" as="sourcePoint" />
          </mxGeometry>
        </mxCell>
        <mxCell id="1ViopwB_VYeIhNxWPcku-26" value="Database" style="rounded=0;whiteSpace=wrap;html=1;fontStyle=1;fontSize=15;" vertex="1" parent="1">
          <mxGeometry x="334" y="620" width="96" height="40" as="geometry" />
        </mxCell>
        <mxCell id="1ViopwB_VYeIhNxWPcku-27" value="VectorStore" style="rounded=0;whiteSpace=wrap;html=1;fontStyle=1;fontSize=15;" vertex="1" parent="1">
          <mxGeometry x="445" y="620" width="98" height="40" as="geometry" />
        </mxCell>
        <mxCell id="1ViopwB_VYeIhNxWPcku-28" value="APIs" style="rounded=0;whiteSpace=wrap;html=1;fontStyle=1;fontSize=15;" vertex="1" parent="1">
          <mxGeometry x="560" y="620" width="70" height="40" as="geometry" />
        </mxCell>
        <mxCell id="1ViopwB_VYeIhNxWPcku-32" value="Question: {question}&lt;div&gt;Context: {context}&lt;/div&gt;&lt;div&gt;Answer:&amp;nbsp;&lt;/div&gt;" style="rounded=0;whiteSpace=wrap;html=1;fontStyle=1;fontSize=15;" vertex="1" parent="1">
          <mxGeometry x="480" y="190" width="210" height="80" as="geometry" />
        </mxCell>
        <mxCell id="1ViopwB_VYeIhNxWPcku-33" value="who is John ?" style="rounded=0;whiteSpace=wrap;html=1;fontStyle=1;fontSize=15;" vertex="1" parent="1">
          <mxGeometry x="70" y="210" width="160" height="40" as="geometry" />
        </mxCell>
        <mxCell id="1ViopwB_VYeIhNxWPcku-34" value="embeddings&lt;div&gt;vectors&lt;/div&gt;" style="rounded=0;whiteSpace=wrap;html=1;fontStyle=1;fontSize=15;" vertex="1" parent="1">
          <mxGeometry x="300" y="475" width="120" height="50" as="geometry" />
        </mxCell>
      </root>
    </mxGraphModel>
  </diagram>
</mxfile>
